<?xml version="1.0" encoding="UTF-8"?><svg id="Capa_1" xmlns="http://www.w3.org/2000/svg" width="26" height="26" viewBox="0 0 26 26"><defs><style>.cls-1{fill:#fff;}.cls-2{fill:#069;}</style></defs><path class="cls-2" d="m4.55,26h16.9c2.5,0,4.55-2.05,4.55-4.55V4.55c0-2.5-2.05-4.55-4.55-4.55H4.55C2.05,0,0,2.05,0,4.55v16.9c0,2.5,2.05,4.55,4.55,4.55h0Z"/><path class="cls-1" d="m13.85,11.37v-1.18h-3.01v9.84h3.1v-5.1c0-1.24.52-2.28,1.73-2.28,1.41,0,1.64,1.15,1.64,2.55v4.83h2.83c.21,0,.27-.06.27-.27v-5.01c0-2.06-.4-3.9-1.9-4.48-.83-.32-1.66-.44-2.7-.21-1.23.27-1.31.84-1.97,1.32h0Zm-7.93,8.66h3.1v-9.84h-3.1v9.84h0Zm1.55-11.13c.99,0,1.79-.8,1.79-1.79s-.8-1.79-1.79-1.79-1.79.8-1.79,1.79.8,1.79,1.79,1.79h0Z"/></svg>