<?xml version="1.0" encoding="utf-8"?>
<!-- Generator: Adobe Illustrator 23.0.2, SVG Export Plug-In . SVG Version: 6.00 Build 0)  -->
<svg version="1.1" id="Layer_1" xmlns="http://www.w3.org/2000/svg" xmlns:xlink="http://www.w3.org/1999/xlink" x="0px" y="0px"
	 viewBox="0 0 150 150" style="enable-background:new 0 0 150 150;" xml:space="preserve">
<style type="text/css">
	.st0{fill:#D7DA72;}
</style>
<g id="Grupo_27053" transform="translate(-199.41 -1252.115)">
	<g id="Trazado_47269">
		<path class="st0" d="M298.5,1357h-12c-4.9,0-8.8-4-8.8-8.8c0-4.9,4-8.8,8.8-8.8h12c0,0,0,0,0,0c2.4,0,4.6,0.9,6.3,2.6
			c1.7,1.7,2.6,3.9,2.6,6.3v0c0,2.4-0.9,4.6-2.6,6.3C303.1,1356.1,300.8,1357,298.5,1357z M286.4,1345c-1.8,0-3.2,1.4-3.2,3.2
			c0,1.8,1.4,3.2,3.2,3.2h12c0.9,0,1.7-0.3,2.3-0.9c0.6-0.6,0.9-1.4,0.9-2.2v0v0c0-0.8-0.3-1.6-0.9-2.2c-0.6-0.6-1.4-0.9-2.2-0.9
			c0,0,0,0,0,0H286.4z"/>
	</g>
	<g id="Trazado_47270">
		<path class="st0" d="M298.5,1345h-12c-4.9,0-8.8-4-8.8-8.8c0-4.9,4-8.8,8.8-8.8h12c0,0,0,0,0,0c2.4,0,4.6,0.9,6.3,2.6
			c1.7,1.7,2.6,3.9,2.6,6.3v0C307.3,1341,303.3,1345,298.5,1345z M286.4,1333c-1.8,0-3.2,1.4-3.2,3.2c0,1.8,1.4,3.2,3.2,3.2h12
			c0.9,0,1.7-0.3,2.3-0.9c0.6-0.6,0.9-1.4,0.9-2.2v0v0c0-0.8-0.3-1.6-0.9-2.2c-0.6-0.6-1.4-0.9-2.2-0.9c0,0,0,0,0,0H286.4z"/>
	</g>
	<g id="Trazado_47271">
		<path class="st0" d="M292.5,1333h-6c-4.9,0-8.8-4-8.8-8.8c0-4.9,4-8.8,8.8-8.8h6c1.6,0,2.8,1.3,2.8,2.8s-1.3,2.8-2.8,2.8h-6
			c-1.8,0-3.2,1.4-3.2,3.2c0,1.8,1.4,3.2,3.2,3.2h6c1.6,0,2.8,1.3,2.8,2.8S294,1333,292.5,1333z"/>
	</g>
	<g id="Trazado_47272">
		<path class="st0" d="M292.5,1320.9h-6c-4.9,0-8.8-4-8.8-8.8s4-8.8,8.8-8.8h6c1.6,0,2.8,1.3,2.8,2.8s-1.3,2.8-2.8,2.8h-6
			c-1.8,0-3.2,1.4-3.2,3.2c0,1.8,1.4,3.2,3.2,3.2h6c1.6,0,2.8,1.3,2.8,2.8S294,1320.9,292.5,1320.9z"/>
	</g>
	<g id="Trazado_47273">
		<path class="st0" d="M328.5,1336h-3c-7.9,0-15-3.9-19.3-9.9c-1.9,4-6,6.9-10.7,6.9h-3c-1.6,0-2.8-1.3-2.8-2.8v-27.1
			c0-2.4,0.9-4.6,2.6-6.3c1.7-1.7,3.9-2.6,6.3-2.6h22.1c0,0,0,0,0,0c4,0,7.7,1.5,10.5,4.4l10.7,10.7h4.8c1.6,0,2.8,1.3,2.8,2.8
			c0,1.6-1.3,2.8-2.8,2.8h-6c-0.8,0-1.5-0.3-2-0.8l-11.5-11.5c-1.7-1.7-4-2.7-6.5-2.7c0,0,0,0,0,0h-22.1c-0.9,0-1.7,0.3-2.3,0.9
			c-0.6,0.6-0.9,1.4-0.9,2.2v24.2h0.2c3.4,0,6.2-2.8,6.2-6.2v-9c0-1.6,1.3-2.8,2.8-2.8c1.6,0,2.8,1.3,2.8,2.8
			c0,10,8.2,18.2,18.2,18.2h3c1.6,0,2.8,1.3,2.8,2.8S330.1,1336,328.5,1336z"/>
	</g>
	<g id="Línea_37">
		<path class="st0" d="M346.2,1356.4h-51c-1.6,0-2.8-1.3-2.8-2.8s1.3-2.8,2.8-2.8h51c1.6,0,2.8,1.3,2.8,2.8
			S347.7,1356.4,346.2,1356.4z"/>
	</g>
	<g id="Línea_38">
		<path class="st0" d="M336.7,1356.4c-1.6,0-2.8-1.3-2.8-2.8v-11.3c0-1.6,1.3-2.8,2.8-2.8s2.8,1.3,2.8,2.8v11.3
			C339.6,1355.1,338.3,1356.4,336.7,1356.4z"/>
	</g>
	<g id="Trazado_47274">
		<path class="st0" d="M262.4,1357h-12c-4.9,0-8.8-4-8.8-8.8v0c0-4.9,4-8.8,8.8-8.8c0,0,0,0,0,0h12c4.9,0,8.8,4,8.8,8.8
			C271.2,1353,267.3,1357,262.4,1357z M250.4,1345c-1.8,0-3.2,1.4-3.2,3.2l-2.8,0l2.8,0c0,1.8,1.4,3.2,3.2,3.2h12
			c1.8,0,3.2-1.4,3.2-3.2c0-1.8-1.4-3.2-3.2-3.2H250.4C250.4,1345,250.4,1345,250.4,1345z M244.3,1348.2L244.3,1348.2L244.3,1348.2z
			"/>
	</g>
	<g id="Trazado_47275">
		<path class="st0" d="M262.4,1345h-12c-4.9,0-8.8-4-8.8-8.8v0c0-4.9,4-8.8,8.8-8.8c0,0,0,0,0,0h12c4.9,0,8.8,4,8.8,8.8
			C271.2,1341,267.3,1345,262.4,1345z M250.4,1333c-1.8,0-3.2,1.4-3.2,3.2l-2.8,0l2.8,0c0,1.8,1.4,3.2,3.2,3.2h12
			c1.8,0,3.2-1.4,3.2-3.2c0-1.8-1.4-3.2-3.2-3.2H250.4C250.4,1333,250.4,1333,250.4,1333z M244.3,1336.1L244.3,1336.1L244.3,1336.1z
			"/>
	</g>
	<g id="Trazado_47276">
		<path class="st0" d="M262.4,1333h-6c-1.6,0-2.8-1.3-2.8-2.8s1.3-2.8,2.8-2.8h6c1.8,0,3.2-1.4,3.2-3.2c0-1.8-1.4-3.2-3.2-3.2h-6
			c-1.6,0-2.8-1.3-2.8-2.8s1.3-2.8,2.8-2.8h6c4.9,0,8.8,4,8.8,8.8C271.2,1329,267.3,1333,262.4,1333z"/>
	</g>
	<g id="Trazado_47277">
		<path class="st0" d="M262.4,1320.9h-6c-1.6,0-2.8-1.3-2.8-2.8s1.3-2.8,2.8-2.8h6c1.8,0,3.2-1.4,3.2-3.2c0-1.8-1.4-3.2-3.2-3.2h-6
			c-1.6,0-2.8-1.3-2.8-2.8s1.3-2.8,2.8-2.8h6c4.9,0,8.8,4,8.8,8.8S267.3,1320.9,262.4,1320.9z"/>
	</g>
	<g id="Trazado_47278">
		<path class="st0" d="M223.3,1336h-3c-1.6,0-2.8-1.3-2.8-2.8s1.3-2.8,2.8-2.8h3c10,0,18.2-8.2,18.2-18.2c0-1.6,1.3-2.8,2.8-2.8
			s2.8,1.3,2.8,2.8v9c0,3.4,2.8,6.2,6.2,6.2h0.2v-24.2c0-0.9-0.3-1.6-0.9-2.2s-1.4-0.9-2.2-0.9h-22.1c0,0,0,0,0,0
			c-2.5,0-4.8,1-6.5,2.7l-11.5,11.5c-0.5,0.5-1.3,0.8-2,0.8h-6c-1.6,0-2.8-1.3-2.8-2.8c0-1.6,1.3-2.8,2.8-2.8h4.8l10.7-10.7
			c2.8-2.8,6.5-4.4,10.5-4.4c0,0,0,0,0,0h22.1c2.4,0,4.6,0.9,6.3,2.6c1.7,1.7,2.6,3.9,2.6,6.3v27.1c0,1.6-1.3,2.8-2.8,2.8h-3
			c-4.8,0-8.9-2.8-10.7-6.9C238.3,1332.1,231.2,1336,223.3,1336z"/>
	</g>
	<g id="Línea_39">
		<path class="st0" d="M253.6,1356.4h-51c-1.6,0-2.8-1.3-2.8-2.8s1.3-2.8,2.8-2.8h51c1.6,0,2.8,1.3,2.8,2.8
			S255.2,1356.4,253.6,1356.4z"/>
	</g>
	<g id="Línea_40">
		<path class="st0" d="M212.1,1356.4c-1.6,0-2.8-1.3-2.8-2.8v-11.3c0-1.6,1.3-2.8,2.8-2.8c1.6,0,2.8,1.3,2.8,2.8v11.3
			C214.9,1355.1,213.7,1356.4,212.1,1356.4z"/>
	</g>
	<g id="Línea_41">
		<path class="st0" d="M274.4,1293.1c-1.6,0-2.8-1.3-2.8-2.8v-22.7c0-1.6,1.3-2.8,2.8-2.8s2.8,1.3,2.8,2.8v22.7
			C277.2,1291.9,276,1293.1,274.4,1293.1z"/>
	</g>
	<g id="Línea_42">
		<path class="st0" d="M289.5,1291.2c-0.3,0-0.6-0.1-0.9-0.2c-1.5-0.5-2.2-2.1-1.7-3.6l5.7-16.1c0.5-1.5,2.1-2.2,3.6-1.7
			c1.5,0.5,2.2,2.1,1.7,3.6l-5.7,16.1C291.8,1290.5,290.7,1291.2,289.5,1291.2z"/>
	</g>
	<g id="Línea_43">
		<path class="st0" d="M259.3,1291.2c-1.2,0-2.3-0.7-2.7-1.9l-5.7-16.1c-0.5-1.5,0.3-3.1,1.7-3.6c1.5-0.5,3.1,0.3,3.6,1.7l5.7,16.1
			c0.5,1.5-0.3,3.1-1.7,3.6C259.9,1291.2,259.6,1291.2,259.3,1291.2z"/>
	</g>
	<g id="Línea_44">
		<path class="st0" d="M274.4,1389.4c-1.6,0-2.8-1.3-2.8-2.8v-22.7c0-1.6,1.3-2.8,2.8-2.8s2.8,1.3,2.8,2.8v22.7
			C277.2,1388.2,276,1389.4,274.4,1389.4z"/>
	</g>
	<g id="Línea_45">
		<path class="st0" d="M295.2,1384.7c-1.2,0-2.3-0.7-2.7-1.9l-5.7-16.1c-0.5-1.5,0.3-3.1,1.7-3.6c1.5-0.5,3.1,0.3,3.6,1.7l5.7,16.1
			c0.5,1.5-0.3,3.1-1.7,3.6C295.8,1384.7,295.5,1384.7,295.2,1384.7z"/>
	</g>
	<g id="Línea_46">
		<path class="st0" d="M253.6,1384.7c-0.3,0-0.6-0.1-0.9-0.2c-1.5-0.5-2.2-2.1-1.7-3.6l5.7-16.1c0.5-1.5,2.1-2.2,3.6-1.7
			c1.5,0.5,2.2,2.1,1.7,3.6l-5.7,16.1C255.9,1384,254.8,1384.7,253.6,1384.7z"/>
	</g>
</g>
</svg>
