<?xml version="1.0" encoding="utf-8"?>
<!-- Generator: Adobe Illustrator 23.0.2, SVG Export Plug-In . SVG Version: 6.00 Build 0)  -->
<svg version="1.1" id="Layer_1" xmlns="http://www.w3.org/2000/svg" xmlns:xlink="http://www.w3.org/1999/xlink" x="0px" y="0px"
	 viewBox="0 0 150 150" style="enable-background:new 0 0 150 150;" xml:space="preserve">
<style type="text/css">
	.st0{fill:#D7DA72;}
</style>
<g id="Grupo_23222" transform="translate(267.921 -351.308)">
	<g id="Trazado_47249">
		<path class="st0" d="M-135.7,441.3c-3.1,0-6-2.1-6.8-5.2l-11.8-44c-1-3.6,1.1-7.4,4.6-8.5l10.6-3.2c0.1,0,0.2-0.1,0.3-0.1
			c1.8-0.5,3.7-0.2,5.4,0.7c1.6,0.9,2.8,2.5,3.3,4.3l11.9,44.1c1,3.7-1.1,7.4-4.7,8.6l-10.7,3.2c0,0-0.1,0-0.3,0.1
			C-134.4,441.2-135.1,441.3-135.7,441.3z M-136.9,385.4c-0.1,0-0.3,0-0.4,0.1c0,0-0.1,0-0.1,0l-10.6,3.2c-0.7,0.2-1.2,1.1-1,1.9
			l11.8,44c0.2,0.8,1.1,1.3,1.9,1.1c0,0,0.1,0,0.1,0l10.7-3.1c0.8-0.2,1.2-1.1,1-1.9l-11.9-44.1c-0.1-0.4-0.4-0.7-0.7-1
			C-136.3,385.5-136.6,385.4-136.9,385.4z M-138.2,382.9L-138.2,382.9L-138.2,382.9z"/>
	</g>
	<g id="Trazado_47250">
		<path class="st0" d="M-144.8,438.9c-2.2,0-4.3-1-5.7-2.7c-1.4-1.7-4.1-5.2-7.4-9.2c-18.5-22.5-28.9-26-40.7-24.2
			c-3.8,0.6-6,1.6-8.9,2.9c-1.4,0.6-2.9,1.3-4.7,2.1c-4.6,1.8-11.4,2.3-15.5-0.4c-2.2-1.4-3.4-3.6-3.5-6.2c-0.2-4.8,5.1-8,12.3-12.4
			c1.7-1,3.4-2.1,5.2-3.3c14-9,22.3-7.2,34.7-3.4c2,0.6,3.9,1.2,5.8,1.8c10,3.1,17.2,5.3,22.4,6.2c1.5,0.2,2.5,1.6,2.3,3.1
			c-0.2,1.5-1.6,2.5-3.1,2.3c-5.6-0.9-13-3.2-23.2-6.3c-1.8-0.6-3.8-1.2-5.8-1.8c-11.5-3.5-18.1-5-30.1,2.7
			c-1.9,1.2-3.6,2.3-5.4,3.3c-4.1,2.5-9.8,6-9.7,7.5c0,0.8,0.3,1.4,1,1.8c2.1,1.4,6.9,1.3,10.5-0.1c1.7-0.7,3.1-1.3,4.4-1.9
			c3-1.4,5.8-2.7,10.4-3.4c16-2.3,28,4.5,45.8,26.2c3.3,4,6.1,7.5,7.5,9.3c0.4,0.5,1.1,0.8,1.8,0.6c1.1-0.3,2.3-0.7,3.4-1.1
			c1.4-0.6,3,0.1,3.6,1.5c0.6,1.4-0.1,3-1.5,3.6c-1.4,0.6-2.8,1.1-4.2,1.4C-143.7,438.9-144.3,438.9-144.8,438.9z"/>
	</g>
	<g id="Trazado_47251">
		<path class="st0" d="M-188.6,473.1c-2.9,0-6.2-0.8-9.8-2.5c-1.4-0.6-2-2.3-1.3-3.6c0.6-1.4,2.3-2,3.6-1.3
			c9.9,4.6,12.6-0.1,12.9-0.7c0.4-0.9,1.3-1.5,2.3-1.6c0.3,0,6.8-0.6,8-6.8c0.3-1.4,1.5-2.3,2.9-2.2c2.4,0.2,5.3-0.8,7-2.5
			c0.9-0.8,1.9-2.3,1.8-4.2c0-0.8,0.3-1.5,0.8-2c0.5-0.5,1.3-0.8,2-0.8c3.2,0.1,6.3-1.8,7.6-4.5c0.9-2,0.5-4.2-1.3-6.2
			c-1-1.1-0.9-2.9,0.2-3.9c1.1-1,2.9-0.9,3.9,0.2c3.2,3.6,4,8,2.2,12.1c-1.8,3.9-5.7,6.7-10.1,7.5c-0.5,2.1-1.6,4.1-3.3,5.7
			c-2.4,2.3-5.7,3.7-9,4c-2.1,5.8-7.4,8.2-11,8.8c-0.9,1.1-2.4,2.7-4.9,3.6C-185.5,472.9-187,473.1-188.6,473.1z"/>
	</g>
	<g id="Trazado_47252">
		<path class="st0" d="M-238.8,442.9c-0.5,0-1-0.1-1.5-0.4c-3.6-2.3-7-5-7.2-5.1c-1.2-0.9-1.4-2.6-0.5-3.8c0.9-1.2,2.6-1.4,3.8-0.5
			c0,0,3.4,2.6,6.8,4.8c1.3,0.8,1.6,2.5,0.8,3.8C-237,442.4-237.9,442.9-238.8,442.9z"/>
	</g>
	<g id="Trazado_47253">
		<path class="st0" d="M-222.8,397.1c-0.2,0-0.3,0-0.5,0c-6.3-1.1-11.7-2.2-11.8-2.2c-1.5-0.3-2.4-1.8-2.1-3.2
			c0.3-1.5,1.7-2.4,3.2-2.1c0.1,0,5.4,1.1,11.6,2.2c1.5,0.3,2.5,1.7,2.2,3.2C-220.3,396.1-221.5,397.1-222.8,397.1z"/>
	</g>
	<g id="Trazado_47254">
		<path class="st0" d="M-204.4,473.7c-3.7,0-7.7-1.1-10.3-4.5c-2-0.1-5.4-0.6-7.7-3c-1-1-1.8-2.2-2.4-3.6c-2.4,0.5-4.9,0-7.1-1.5
			c-2.3-1.7-3.9-4.2-4.3-7c-3.6-0.5-6.8-3-8-6.5c-1.2-3.2-0.5-6.4,1.8-8.7c1.7-1.6,4.4-2.3,7.2-1.7c2.7,0.5,5,2.1,6.3,4.3
			c1.9-0.7,4-0.7,5.9,0.1c2.3,0.9,4.2,2.8,5.2,5.1c2.9-0.2,5.3,0.5,7.2,2c2.1,1.6,3.4,4.3,3.8,7.5c4.6,0.1,8.1,2.5,8.8,6.1
			c0.4,2.4,1.8,3.2,1.9,3.3c0.7,0.3,1.1,0.8,1.3,1.6c0.2,0.7,0.7,3.2-2.7,4.9C-199,473-201.6,473.7-204.4,473.7z M-210.3,465.7
			c1.1,1.6,3.1,2.2,4.6,2.3c1.7,0.2,3.2,0,4.4-0.2c-0.7-1.1-1.4-2.5-1.8-4.4c-0.1-0.7-1.4-1.7-3.8-1.6c0,0-0.1,0-0.1,0
			c-2.5,0-4.6-1.9-4.9-4.4c-0.2-1.4-0.6-3.3-1.8-4.3c-0.9-0.7-2.2-1-3.8-0.8c-2.1,0.3-4.1-1-4.8-3c-0.4-1.2-1.3-2.2-2.3-2.6
			c-0.8-0.3-1.6-0.3-2.4,0.2c-0.1,0.1-0.2,0.1-0.4,0.2c-1.1,0.4-2.2,0.4-3.3,0c-1.1-0.4-1.9-1.3-2.3-2.3c-0.7-1.6-2.4-2-2.9-2.1
			c-1.3-0.3-2.1,0.1-2.3,0.3c-1,1-0.7,2.2-0.5,2.8c0.5,1.4,1.9,2.8,4,2.9c2.4,0.2,4.2,2.1,4.3,4.4c0.1,1.3,0.9,2.6,2,3.5
			c0.5,0.4,1.6,0.9,2.7,0.6c2.5-0.7,5.1,0.5,6.1,2.9c0.3,0.9,0.8,1.6,1.4,2.2c0.8,0.8,2.3,1.3,4.3,1.3
			C-212.6,463.8-211.2,464.5-210.3,465.7L-210.3,465.7z M-236.1,453.5C-236.1,453.5-236.1,453.5-236.1,453.5
			C-236.1,453.5-236.1,453.5-236.1,453.5z M-218.3,446.9C-218.3,446.9-218.3,446.9-218.3,446.9
			C-218.3,446.9-218.3,446.9-218.3,446.9z M-228.2,442.7C-228.2,442.7-228.2,442.7-228.2,442.7
			C-228.2,442.7-228.2,442.7-228.2,442.7z M-229.8,442.1C-229.8,442.1-229.8,442.1-229.8,442.1
			C-229.8,442.1-229.8,442.1-229.8,442.1z"/>
	</g>
	<g id="Trazado_47255">
		<path class="st0" d="M-250.2,441.3c-0.6,0-1.2-0.1-1.8-0.2c-0.1,0-0.2-0.1-0.3-0.1l-10.6-3.1c-3.7-1.2-5.7-4.9-4.7-8.6l11.9-44.1
			c0.5-1.8,1.7-3.3,3.3-4.3c1.6-0.9,3.5-1.2,5.4-0.7c0.1,0,0.2,0.1,0.3,0.1l10.5,3.2c3.6,1.2,5.7,4.9,4.7,8.6l-11.8,44
			C-244.2,439.2-247.1,441.3-250.2,441.3z M-249,385.4c-0.3,0-0.5,0.1-0.8,0.2c-0.4,0.2-0.6,0.5-0.7,1l-11.9,44.1
			c-0.2,0.8,0.2,1.7,1,1.9l10.6,3.1c0,0,0.1,0,0.1,0c0.8,0.2,1.7-0.3,1.9-1.1l11.8-44c0.2-0.8-0.2-1.6-1-1.9l-10.5-3.2
			c0,0,0,0-0.1,0l-0.1,0C-248.7,385.4-248.8,385.4-249,385.4z"/>
	</g>
</g>
</svg>
