<?xml version="1.0" encoding="utf-8"?>
<!-- Generator: Adobe Illustrator 23.0.2, SVG Export Plug-In . SVG Version: 6.00 Build 0)  -->
<svg version="1.1" id="Layer_1" xmlns="http://www.w3.org/2000/svg" xmlns:xlink="http://www.w3.org/1999/xlink" x="0px" y="0px"
	 viewBox="0 0 150 150" style="enable-background:new 0 0 150 150;" xml:space="preserve">
<style type="text/css">
	.st0{fill:#D7DA72;}
</style>
<g id="Grupo_27055" transform="translate(-947.693 -336.598)">
	<g id="Trazado_47263">
		<path class="st0" d="M1022.7,474.3c-0.6,0-1.2-0.2-1.8-0.5c-0.1-0.1-12.3-8.1-23-15.4c-1.5-1-1.9-3.1-0.9-4.6
			c1-1.5,3.1-1.9,4.6-0.9c10.7,7.2,22.8,15.2,22.9,15.3c1.5,1,1.9,3,0.9,4.5C1024.8,473.8,1023.8,474.3,1022.7,474.3z"/>
	</g>
	<g id="Trazado_47264">
		<path class="st0" d="M986.1,449.5c-0.7,0-1.4-0.2-1.9-0.6c-6.8-5.1-10.9-14.3-10.9-24.7v-49.5c0-0.9,0.4-1.8,1-2.4
			c0.7-0.6,1.6-0.9,2.5-0.9c19.7,1.4,43.5-19.7,43.8-19.9c1.2-1.1,3.1-1.1,4.4,0c0.2,0.2,24.1,21.3,43.8,19.9c1.8-0.1,3.4,1.2,3.5,3
			c0.1,1.8-1.2,3.4-3,3.5c-18.8,1.3-39.7-14.2-46.4-19.7c-6.3,5.2-25,19.2-42.9,19.8v46.2c0,8.2,3.2,15.6,8.3,19.4
			c1.5,1.1,1.8,3.1,0.7,4.6C988.1,449.1,987.1,449.5,986.1,449.5z"/>
	</g>
	<g id="Línea_36">
		<path class="st0" d="M1068.9,406.8c-1.8,0-3.3-1.5-3.3-3.3v-13.4c0-1.8,1.5-3.3,3.3-3.3c1.8,0,3.3,1.5,3.3,3.3v13.4
			C1072.2,405.3,1070.7,406.8,1068.9,406.8z"/>
	</g>
	<g id="Trazado_47265">
		<path class="st0" d="M1022.7,474.3c-1.1,0-2.1-0.5-2.7-1.5c-1-1.5-0.6-3.5,0.9-4.5c0.3-0.2,27.7-18.3,36.4-24.7
			c5.1-3.8,8.3-11.2,8.3-19.4v-4.3c0-1.8,1.5-3.3,3.3-3.3c1.8,0,3.3,1.5,3.3,3.3v4.3c0,10.4-4.1,19.6-10.9,24.7
			c-8.9,6.5-35.6,24.2-36.7,24.9C1023.9,474.2,1023.3,474.3,1022.7,474.3z"/>
	</g>
	<g id="Trazado_47266">
		<path class="st0" d="M1022.7,486.6c-0.6,0-1.3-0.2-1.8-0.5l-5.6-3.7c-4.8-3.1-28.6-18.9-37.2-25.2c-9.5-7-15.1-19.3-15.1-32.9
			v-60.5c0-0.9,0.4-1.8,1-2.4c0.7-0.6,1.6-0.9,2.5-0.9l11,0.8c11.3,0.8,28.3-10.4,36.1-17.3l6.8-6.4c1.3-1.2,3.2-1.2,4.5,0l6.9,6.5
			c7.5,6.6,23.7,17.3,34.9,17.3c0.4,0,0.8,0,1.1,0l10.9-0.8c0.9-0.1,1.8,0.3,2.5,0.9c0.7,0.6,1,1.5,1,2.4v60.5
			c0,13.6-5.6,25.9-15.1,32.9c-8.4,6.2-32.3,22-37,25.1l-5.8,3.8C1024,486.4,1023.3,486.6,1022.7,486.6z M969.6,367.3v57
			c0,11.5,4.6,21.9,12.4,27.6c8.6,6.3,34,23.1,36.8,25l3.9,2.6l4-2.6c4.7-3.1,28.5-18.8,36.8-24.9c7.8-5.8,12.4-16.1,12.4-27.6v-57
			l-7.4,0.5c-0.5,0-1.1,0.1-1.6,0.1c-17.7,0-39.1-18.8-39.4-19l-4.7-4.5l-4.7,4.4c-0.3,0.3-23,20.2-41,19L969.6,367.3z"/>
	</g>
	<g id="Trazado_47267">
		<path class="st0" d="M1024,430.5c-2.7,0-5.4-1.1-7.3-3.3l-14.1-15.9c-2.7-3.1-2.6-7.8,0.3-10.7c2.6-2.6,6.6-3,9.7-1.1l11.2,7
			l24.1-20.5c0.1-0.1,0.2-0.2,0.3-0.3c3.1-2.3,7.5-1.7,9.8,1.4c2,2.6,1.8,6.2-0.3,8.7l-26.3,31.1c0,0,0,0,0,0c-0.3,0.4-0.6,0.7-1,1
			C1028.6,429.7,1026.3,430.5,1024,430.5z M1028.9,424.9L1028.9,424.9L1028.9,424.9z M1008.4,404.8c-0.3,0-0.6,0.1-0.9,0.4
			c-0.5,0.5-0.5,1.2,0,1.7l14.1,15.9c1.2,1.3,3.2,1.4,4.5,0.3c0.1-0.1,0.2-0.2,0.3-0.3l26.3-31.1c0.1-0.2,0.1-0.4,0-0.6
			c-0.1-0.2-0.4-0.2-0.6-0.1l-25.2,21.4c-1.6,1.5-4.1,1.6-5.8,0.2l-12-7.6C1008.9,404.9,1008.7,404.8,1008.4,404.8z M1025.4,407.6
			C1025.4,407.7,1025.4,407.7,1025.4,407.6C1025.4,407.7,1025.4,407.7,1025.4,407.6z"/>
	</g>
	<g id="Trazado_47268">
		<path class="st0" d="M1022.5,445.1c-6.4,0-12.6-1.8-18-5.4c-15.2-10-19.5-30.5-9.5-45.7c10-15.2,30.5-19.5,45.7-9.5
			c1.5,1,1.9,3,0.9,4.5c-1,1.5-3,1.9-4.5,0.9c-12.2-8-28.7-4.6-36.7,7.6c-8,12.2-4.6,28.7,7.6,36.7c5.9,3.9,13,5.2,19.9,3.8
			c6.9-1.4,12.9-5.5,16.7-11.4c2.8-4.3,4.3-9.3,4.3-14.5c0-0.8,0-1.5-0.1-2.2c-0.2-1.8,1.2-3.4,3-3.6c1.8-0.2,3.4,1.2,3.6,3
			c0.1,0.9,0.1,1.9,0.1,2.8c0,6.4-1.9,12.7-5.4,18.1c-4.8,7.4-12.3,12.4-20.9,14.2C1027.1,444.9,1024.8,445.1,1022.5,445.1z"/>
	</g>
</g>
</svg>
