<?xml version="1.0" encoding="utf-8"?>
<!-- Generator: Adobe Illustrator 23.0.2, SVG Export Plug-In . SVG Version: 6.00 Build 0)  -->
<svg version="1.1" id="Layer_1" xmlns="http://www.w3.org/2000/svg" xmlns:xlink="http://www.w3.org/1999/xlink" x="0px" y="0px"
	 viewBox="0 0 150 150" style="enable-background:new 0 0 150 150;" xml:space="preserve">
<style type="text/css">
	.st0{fill:#D7DA72;}
</style>
<g id="Grupo_23220" transform="translate(187.903 -37.84)">
	<g id="Trazado_47242">
		<path class="st0" d="M-138.2,187.8c-8.8,0-17.7-2.9-26.5-10.7l0,0c-16.2-14.4-15.8-29.6-15.4-47.3c0.2-8.9,0.5-18.2-1.3-28.6
			c-1-5.7-2.2-10-3.2-13.5c-1.9-6.6-3.2-11.3,1.2-15.7c1.9-1.8,4.5-2.6,7.4-2.2c5.9,0.9,12.8,6.6,16.8,14c4.4,8,5.8,13.6,6.6,17
			c0.2,0.7,0.4,1.5,0.6,2.1c2.7-1,5.3-8,6.3-10.8c0.3-0.8,0.5-1.4,0.8-2c0.4-1,1-2.5,1.7-4.3c9.1-23.8,18.8-46.1,28.6-47.9
			c1.9-0.4,4.7-0.2,7.4,2.8c6.3,7-0.3,23.2-6.7,38.8c-1.8,4.4-3.8,9.2-4.9,12.9c5.3-6.1,9.9-11,14.7-16.1c4.3-4.7,8.8-9.5,14.2-15.5
			c4.2-4.8,12.4-12.7,19.5-11.9c2,0.2,4.8,1.3,6.8,4.9c3.7,6.9-2.4,14.8-6.1,19.5c-0.4,0.5-0.7,0.9-1,1.3
			c-3.4,4.5-7.9,9.8-12.6,15.4c-5.6,6.7-13.5,16-16.7,21.3c8.6-4.8,27.8-20,35.8-26.4l2.4-1.9c5.8-4.6,11.6-6.3,16-4.8
			c2.8,1,4.8,3.3,5.5,6.5c1.8,8.1-8.2,16.9-17,24.7c-2.5,2.2-6.4,5.4-10.6,8.8c-5.9,4.8-15,12.2-19.3,16.5
			c4.4-1.5,11.8-5.9,15.9-8.2c2.4-1.4,4.7-2.7,6.7-3.8l0.9-0.5c5.9-3.2,18.3-10,23.4-1.2c3.5,6.1-1.8,13.8-15.8,22.9
			c-6,3.9-10.3,7.1-14.5,10.2c-4.6,3.4-9.3,6.9-16.1,11.1c-2,1.2-4,2.6-6.1,3.9C-105.8,177.5-121.7,187.8-138.2,187.8z
			 M-160.5,172.5c21.5,19.1,44.2,4.4,64.1-8.6c2.1-1.4,4.2-2.7,6.1-4c6.6-4.2,11-7.4,15.7-10.9c4.2-3.1,8.6-6.4,14.8-10.4
			c12.8-8.3,14.6-13.1,13.8-14.5c-2.1-3.5-11.5,1.6-15,3.5l-1,0.5c-1.9,1-4.2,2.3-6.5,3.7c-12,7-22.4,13.1-26.8,7.3
			c-2.5-3.3,1.4-7.2,7.1-12.4c4.5-4.1,10.7-9,16.1-13.4c4.1-3.3,8-6.5,10.4-8.6c6-5.3,16.1-14.2,15-18.6c-0.3-1.4-1-1.8-1.5-2
			c-1.8-0.6-5.6,0.3-10,3.8l-2.4,1.9c-29,23-39.3,29.8-43.8,29.2c-1.1-0.2-2.1-0.7-2.7-1.6c-3.3-4.5,2.5-12.2,18.8-31.4
			c4.5-5.3,9.1-10.8,12.4-15.1c0.3-0.4,0.7-0.9,1.1-1.4c2.7-3.5,7.3-9.4,5.5-12.7c-0.8-1.5-1.6-1.6-2-1.7c-2.9-0.3-8.7,3.7-14.1,9.8
			c-5.4,6.1-9.9,10.9-14.3,15.6c-5.7,6.2-11.1,12-18,20c-1.3,1.5-3.5,2.1-5.4,1.5c-1.8-0.6-3.1-2.2-3.2-4.1
			c-0.2-4,2.3-10.5,6.5-20.6c4.3-10.6,11.5-28.2,7.9-32.3c-0.8-0.9-1.3-0.9-1.6-0.8c-1.1,0.2-5.1,2-12.5,16.9
			c-4.7,9.5-8.9,20.5-11.4,27c-0.7,1.9-1.3,3.4-1.7,4.4c-0.2,0.5-0.4,1.1-0.7,1.8c-2,5.5-5.4,14.6-12.4,15c-4.6,0.2-5.6-3.5-6.4-6.9
			c-0.8-3.3-2.1-8.2-6.1-15.6c-3.4-6.3-8.9-10.3-12.2-10.8c-1.4-0.2-1.9,0.3-2.1,0.4c-1.7,1.6-1.4,3,0.4,9.5c1,3.6,2.3,8.1,3.3,14.1
			c1.9,11,1.6,21,1.4,29.8C-174.2,146.8-174.5,160-160.5,172.5L-160.5,172.5z"/>
	</g>
	<g id="Trazado_47243">
		<path class="st0" d="M-133.3,167.2c-0.6,0-1.1-0.2-1.6-0.5l-0.6-0.4c-2.5-1.5-24.9-15.6-24.9-31.6c0-8.7,7.1-15.9,15.9-15.9
			c4.3,0,8.3,1.7,11.2,4.6c2.9-2.9,6.9-4.6,11.2-4.6c8.8,0,15.9,7.1,15.9,15.9c0,16-22.3,30-24.9,31.6l-0.6,0.4
			C-132.2,167.1-132.7,167.2-133.3,167.2z M-144.5,125.2c-5.3,0-9.6,4.3-9.6,9.6c0,9.8,13.1,20.7,20.8,25.6
			c7.8-5,20.8-15.8,20.8-25.6c0-5.3-4.3-9.6-9.6-9.6c-3.5,0-6.8,1.9-8.5,5c-0.5,1-1.6,1.6-2.7,1.6c0,0,0,0,0,0
			c-1.1,0-2.2-0.6-2.7-1.6C-137.7,127.1-141,125.2-144.5,125.2z"/>
	</g>
	<g id="Trazado_47244">
		<path class="st0" d="M-117.2,137.9c-1.7,0-3.1-1.4-3.1-3.1c0-1-0.8-1.8-1.8-1.8c-1.7,0-3.1-1.4-3.1-3.1c0-1.7,1.4-3.1,3.1-3.1
			c0,0,0,0,0,0c4.4,0,8,3.6,8,8C-114,136.5-115.4,137.9-117.2,137.9C-117.2,137.9-117.2,137.9-117.2,137.9z"/>
	</g>
</g>
</svg>
