<?xml version="1.0" encoding="utf-8"?>
<!-- Generator: Adobe Illustrator 23.0.2, SVG Export Plug-In . SVG Version: 6.00 Build 0)  -->
<svg version="1.1" id="Layer_1" xmlns="http://www.w3.org/2000/svg" xmlns:xlink="http://www.w3.org/1999/xlink" x="0px" y="0px"
	 viewBox="0 0 150 150" style="enable-background:new 0 0 150 150;" xml:space="preserve">
<style type="text/css">
	.st0{fill:#D7DA72;}
</style>
<g id="Grupo_23221" transform="translate(-310.882 -293.022)">
	<g id="Línea_31">
		<path class="st0" d="M366.7,390.3c-0.8,0-1.5-0.3-2.1-0.9c-1.2-1.2-1.2-3.1,0-4.2l60.8-60.8c1.2-1.2,3.1-1.2,4.2,0
			c1.2,1.2,1.2,3.1,0,4.2l-60.8,60.8C368.2,390,367.4,390.3,366.7,390.3z"/>
	</g>
	<g id="Trazado_47245">
		<path class="st0" d="M427.5,359.9c-0.2,0-0.4,0-0.6-0.1l-29.8,0.1c0,0,0,0,0,0c-0.8,0-1.6-0.3-2.1-0.9c-0.6-0.6-0.9-1.3-0.9-2.1
			l0.1-29.9c0-0.1,0-0.3,0-0.4c0-0.8,0.3-1.6,0.8-2.2l30.4-30.4c0.6-0.6,1.4-0.9,2.1-0.9c0.8,0,1.6,0.3,2.1,0.9
			c0.6,0.6,0.9,1.4,0.9,2.2l-0.1,27.3l27.3-0.1c0,0,0,0,0,0c0.8,0,1.6,0.3,2.1,0.9c1.2,1.2,1.2,3.1,0.1,4.3L429.6,359
			C429,359.5,428.3,359.9,427.5,359.9z M400.1,327.6l-0.1,26.2l26.2-0.1l24.4-24.4l-23.2,0.1c0,0,0,0,0,0c-0.8,0-1.6-0.3-2.1-0.9
			c-0.6-0.6-0.9-1.3-0.9-2.1l0.1-23.2L400.1,327.6z"/>
	</g>
	<g id="Trazado_47246">
		<path class="st0" d="M366.1,443c-20.8,0-40.8-11.8-50.1-31.9c-6.2-13.4-6.9-28.3-1.8-42.2c5.1-13.8,15.2-24.9,28.6-31.1
			c14.8-6.9,31.8-6.9,46.6,0c1.5,0.7,2.1,2.5,1.4,4c-0.7,1.5-2.5,2.1-4,1.4c-13.2-6.2-28.4-6.2-41.6,0c-11.9,5.5-21,15.4-25.5,27.7
			s-3.9,25.7,1.6,37.6c11.4,24.6,40.7,35.3,65.3,23.9c24.6-11.4,35.3-40.8,23.9-65.3c-0.7-1.5,0-3.3,1.5-4c1.5-0.7,3.3,0,4,1.5
			c12.8,27.6,0.8,60.5-26.8,73.3C381.8,441.3,373.9,443,366.1,443z"/>
	</g>
	<g id="Trazado_47247">
		<path class="st0" d="M366.1,425.6c-3.7,0-7.4-0.5-11-1.6c-9.7-2.9-17.6-9.4-22.4-18.4c-4.8-8.9-5.8-19.1-2.8-28.8
			c2.9-9.7,9.4-17.6,18.4-22.4c11.2-6,24.6-6,35.8,0.1c1.5,0.8,2,2.6,1.2,4.1c-0.8,1.5-2.6,2-4.1,1.2c-9.4-5.1-20.7-5.1-30.1-0.1
			c-7.5,4-13,10.7-15.4,18.8c-2.5,8.1-1.6,16.7,2.4,24.2c4,7.5,10.7,13,18.8,15.4c8.1,2.5,16.7,1.6,24.2-2.4
			c7.5-4,13-10.7,15.4-18.8c2.5-8.1,1.6-16.7-2.4-24.2c-0.8-1.5-0.2-3.3,1.2-4.1c1.5-0.8,3.3-0.2,4.1,1.2c4.8,8.9,5.8,19.1,2.8,28.8
			c-2.9,9.7-9.5,17.6-18.4,22.4C378.3,424.1,372.2,425.6,366.1,425.6z"/>
	</g>
	<g id="Trazado_47248">
		<path class="st0" d="M366,406.3c-4,0-7.9-1.3-11.1-3.8c-3.9-3-6.5-7.3-7.1-12.2c-0.7-4.9,0.6-9.7,3.6-13.7c3-3.9,7.3-6.5,12.2-7.1
			c1.8-0.2,3.6-0.2,5.4,0.1c1.6,0.3,2.7,1.8,2.5,3.4c-0.3,1.6-1.8,2.7-3.4,2.5c-1.2-0.2-2.4-0.2-3.7,0c-3.3,0.5-6.2,2.2-8.2,4.8
			c-2,2.7-2.9,5.9-2.4,9.2c0.5,3.3,2.2,6.2,4.8,8.2c2.6,2,5.9,2.9,9.2,2.4c6.8-0.9,11.6-7.2,10.7-14c-0.2-1.6,0.9-3.2,2.6-3.4
			c1.6-0.2,3.2,0.9,3.4,2.6c1.4,10.1-5.7,19.4-15.8,20.8C367.7,406.2,366.8,406.3,366,406.3z"/>
	</g>
</g>
</svg>
