<?xml version="1.0" encoding="utf-8"?>
<!-- Generator: Adobe Illustrator 23.0.2, SVG Export Plug-In . SVG Version: 6.00 Build 0)  -->
<svg version="1.1" id="Layer_1" xmlns="http://www.w3.org/2000/svg" xmlns:xlink="http://www.w3.org/1999/xlink" x="0px" y="0px"
	 viewBox="0 0 150 150" style="enable-background:new 0 0 150 150;" xml:space="preserve">
<style type="text/css">
	.st0{fill:#D7DA72;}
</style>
<g id="Grupo_23223" transform="translate(-168.176 -166.334)">
	<g id="Trazado_47256">
		<path class="st0" d="M242.9,316.3c-0.2,0-0.4,0-0.5,0c-7.8-0.2-14.6-2-23.4-6.3c-3-1.4-5.6-2.8-8.1-4.1l-1.2-0.6
			c-5.8-3-13.9-4-21-4.6c-1.7-0.1-3.1-1.7-2.9-3.4c0.1-1.8,1.7-3.1,3.4-2.9c7.8,0.6,16.7,1.7,23.5,5.3l0.8,0.4
			c0.2,0.1,0.4,0.2,0.5,0.3c2.3,1.2,4.9,2.6,7.8,4c8,3.9,13.9,5.5,20.8,5.7c4.8,0.2,15.3-2.2,37.3-14.4
			c10.1-5.6,31.2-17.2,31.6-21.7c0-0.2-0.4-0.6-0.5-0.7c-3.7-3-19.5,5.3-30,10.9c-2.7,1.4-5.4,2.8-8,4.2c-1.6,0.8-3.5,0.2-4.3-1.4
			c-0.8-1.6-0.2-3.5,1.4-4.3c2.6-1.3,5.3-2.7,7.9-4.1c16.1-8.5,30.1-15.8,37-10.1c2.6,2.1,3,4.5,2.8,6.2
			c-0.6,6.8-11.3,13.7-34.9,26.7C264.6,311.2,251.1,316.3,242.9,316.3z"/>
	</g>
	<g id="Trazado_47257">
		<path class="st0" d="M261.7,300.4c-3.7,0-8.5-1.6-14.7-3.7c-1.8-0.6-3.4-1.2-5-1.8c-7.6-2.7-14.1-5-23.2-5.7
			c-1.7-0.1-3.1-1.7-2.9-3.4c0.1-1.8,1.7-3.1,3.4-2.9c10,0.8,16.9,3.2,24.8,6.1c1.6,0.6,3.3,1.2,5,1.7c5.9,2,12.1,4.1,13.9,3.2
			c0.1-0.1,0.4-0.2,0.6-1c0.8-2.8-7.9-11-21.7-16.5c-4.2-1.7-7.7-4-11.1-6.2c-4.5-2.9-8.4-5.4-12.8-6c-6.5-0.9-12.4,0.7-17.4,2.3
			c-4.1,1.3-7.7,2.4-11.2,3.2c-1.7,0.4-3.4-0.7-3.8-2.4c-0.4-1.7,0.7-3.4,2.4-3.8c3.2-0.7,6.7-1.7,10.6-3c5.3-1.7,12.4-3.6,20.2-2.6
			c5.8,0.8,10.7,3.9,15.4,6.9c3.2,2,6.4,4.1,10,5.6c10.1,4.1,28.3,14.4,25.4,24.3c-0.7,2.2-2,3.9-3.8,4.8
			C264.7,300.1,263.3,300.4,261.7,300.4z"/>
	</g>
	<g id="Trazado_47258">
		<path class="st0" d="M264.6,281.2c-1.1,0-2.1-0.5-2.7-1.5c-0.9-1.5-0.5-3.4,1-4.4l2.7-1.7c9.6-6.1,19.5-12.5,26.9-12.5
			c0,0,0,0,0,0c4.3,0,6.6,1.4,7.7,2.7c1.2,1.3,1.1,3.2-0.2,4.4c-1.3,1.2-3.3,1.1-4.5-0.1c-0.1-0.2-1-0.6-3-0.6c0,0,0,0,0,0
			c-5.5,0-15,6.1-23.5,11.5l-2.7,1.7C265.8,281,265.2,281.2,264.6,281.2z"/>
	</g>
	<g id="Trazado_47259">
		<path class="st0" d="M258.3,277c-1,0-1.9-0.4-2.6-1.3c-1-1.4-0.7-3.4,0.7-4.4c1.8-1.3,3.4-2.6,5-3.8c6.5-4.9,11.6-8.9,16.9-9.3
			c1.3-0.1,2.6-0.1,3.9,0.2c1.7,0.3,2.8,2,2.5,3.7c-0.3,1.7-2,2.8-3.7,2.5c-0.7-0.1-1.3-0.2-2-0.1c-3.6,0.3-8.3,3.9-13.7,8
			c-1.6,1.2-3.3,2.5-5.1,3.8C259.6,276.8,259,277,258.3,277z"/>
	</g>
	<g id="Trazado_47260">
		<path class="st0" d="M251.4,273c-0.9,0-1.8-0.4-2.5-1.2c-1.1-1.4-0.9-3.4,0.5-4.5c2-1.6,3.5-3,4.8-4.3c2.9-2.7,5.1-4.8,8.9-5.4
			c1.2-0.2,2.5-0.2,3.8,0c1.7,0.3,2.9,1.9,2.6,3.6c-0.3,1.7-1.9,2.9-3.6,2.6c-0.6-0.1-1.2-0.1-1.8,0c-1.8,0.3-3,1.3-5.6,3.7
			c-1.3,1.3-3,2.8-5.2,4.6C252.8,272.8,252.1,273,251.4,273z"/>
	</g>
	<g id="Rectángulo_80081">
		<path class="st0" d="M188.1,306.9h-15.6c-2.2,0-4-1.8-4-4v-40.8c0-2.2,1.8-4,4-4h15.6c2.2,0,4,1.8,4,4v40.8
			C192.1,305.1,190.3,306.9,188.1,306.9z M174.8,300.6h10.9v-36.1h-10.9V300.6z M188.1,264.4L188.1,264.4L188.1,264.4z"/>
	</g>
	<g id="Trazado_47261">
		<path class="st0" d="M268.8,232.3c-0.1,0-0.1,0-0.2,0c-1.8-0.1-3.1-1.6-3-3.3c0.4-8.4-3.1-18.8-9.4-27.8
			c-6.3-8.9-14.5-15.5-22.5-18.1c-1.7-0.5-2.6-2.3-2-4c0.5-1.7,2.3-2.6,4-2c9.3,3,18.7,10.5,25.8,20.5c7.2,10.2,11.1,21.8,10.6,31.7
			C271.9,231,270.5,232.3,268.8,232.3z"/>
	</g>
	<g id="Trazado_47262">
		<path class="st0" d="M247.7,247.2c-0.3,0-0.6,0-0.9-0.1c-9.5-2.9-19.1-10.4-26.3-20.7c-7.1-10-10.9-21.4-10.6-31.2
			c0.1-1.8,1.6-3.1,3.3-3.1c1.8,0.1,3.1,1.5,3.1,3.3c-0.3,8.4,3.2,18.4,9.5,27.3c6.4,9.1,14.8,15.8,22.9,18.3c1.7,0.5,2.6,2.3,2.1,4
			C250.3,246.3,249,247.2,247.7,247.2z"/>
	</g>
	<g id="Línea_32">
		<path class="st0" d="M259.6,241.7c-1,0-2-0.5-2.6-1.3l-37.4-53.1c-1-1.4-0.7-3.4,0.8-4.4c1.4-1,3.4-0.7,4.4,0.8l37.4,53.1
			c1,1.4,0.7,3.4-0.8,4.4C260.9,241.5,260.2,241.7,259.6,241.7z"/>
	</g>
	<g id="Línea_33">
		<path class="st0" d="M214.4,233.9c-1,0-2-0.5-2.6-1.3c-1-1.4-0.7-3.4,0.8-4.4l53.1-37.4c1.4-1,3.4-0.7,4.4,0.8
			c1,1.4,0.7,3.4-0.8,4.4l-53.1,37.4C215.6,233.7,215,233.9,214.4,233.9z"/>
	</g>
	<g id="Línea_34">
		<path class="st0" d="M207.9,211.7c-1,0-2-0.5-2.6-1.3c-1-1.4-0.7-3.4,0.8-4.4l40.8-28.8c1.4-1,3.4-0.7,4.4,0.8
			c1,1.4,0.7,3.4-0.8,4.4l-40.8,28.8C209.2,211.5,208.5,211.7,207.9,211.7z"/>
	</g>
	<g id="Línea_35">
		<path class="st0" d="M233.1,247.4c-1,0-2-0.5-2.6-1.3c-1-1.4-0.7-3.4,0.8-4.4l40.8-28.8c1.4-1,3.4-0.7,4.4,0.8
			c1,1.4,0.7,3.4-0.8,4.4l-40.8,28.8C234.4,247.2,233.7,247.4,233.1,247.4z"/>
	</g>
	<g id="Elipse_63">
		<path class="st0" d="M240.9,257.7c-0.4,0-0.8,0-1.2,0c-25.2-0.6-45.1-21.6-44.5-46.8c0.3-12.2,5.3-23.5,14.2-31.9
			c8.8-8.4,20.4-12.9,32.6-12.5c25.2,0.6,45.1,21.6,44.5,46.8C285.9,237.9,265.6,257.7,240.9,257.7z M240.9,172.7
			c-21.2,0-38.7,17-39.3,38.3c-0.5,21.7,16.6,39.7,38.3,40.3c21.7,0.5,39.7-16.6,40.3-38.3c0.5-21.7-16.6-39.7-38.3-40.3
			C241.6,172.7,241.2,172.7,240.9,172.7z"/>
	</g>
</g>
</svg>
